<svg id="Capa_1" enable-background="new 0 0 510.08 510.08" height="512" viewBox="0 0 510.08 510.08" width="512" xmlns="http://www.w3.org/2000/svg"><g><circle fill="#3d3d3d" cx="255.023" cy="255.052" r="71"/><path fill="#3d3d3d" d="m435.336 74.739c-84.735-84.734-212.786-96.718-309.809-39.4-30.225-25.854-77.504-4.502-77.504 35.713 0 9.303 2.728 17.976 7.411 25.283-68.018 85.461-74.4 206.03-13.832 298.322-6.005 7.894-9.579 17.734-9.579 28.395 0 38.038 42.86 59.958 73.647 38.687 99.412 71.83 239.29 64.002 329.666-26.374 99.652-99.653 99.665-260.96 0-360.626zm-180.313 405.313c-47.85 0-93.012-14.594-131.365-42.307 11.796-35.744-21.28-69.995-57.247-59.961-53.078-81.288-47.429-187.348 12.38-262.624 34.511 12.74 70.049-17.737 62.155-54.089 147.897-87.191 339.077 18.899 339.077 193.981 0 124.065-100.935 225-225 225z"/><path fill="#3d3d3d" d="m430.023 159.052c0-34.846-36.68-57.428-67.656-42.205-30.617-23.802-68.303-36.795-107.344-36.795-96.495 0-175 78.505-175 175 0 93.443 73.618 170.014 165.9 174.765 8.03 14.439 23.439 24.235 41.1 24.235 24.465 0 44.615-18.792 46.795-42.699 81.855-41.279 116.851-137.853 83.963-220.696 7.601-8.354 12.242-19.448 12.242-31.605zm-103.689 222.284c-23.609-35.969-78.731-23.841-85.668 18.005-73.239-7.232-130.643-69.181-130.643-144.29 0-119.187 136.076-186.597 230.883-116.828-16.967 34.17 12.205 73.873 50.362 67.089 24.053 65.693-2.485 140.751-64.934 176.024z"/></g></svg>
